<?xml version="1.0" encoding="UTF-8"?>
<svg version="1.1" xmlns="http://www.w3.org/2000/svg" width="180" height="180">
<path d="M0 0 C2.1065693 0.00315246 4.21171931 -0.02034117 6.31811523 -0.0456543 C14.69209436 -0.08470859 22.26654812 0.8293083 30.30834961 3.31567383 C31.44530273 3.63149414 32.58225586 3.94731445 33.75366211 4.27270508 C39.6100411 6.14230712 44.68245995 8.4285405 49.85913086 11.75317383 C51.77194927 12.97347265 53.74381818 14.10133508 55.73413086 15.19067383 C73.06033539 25.0394005 85.05831961 44.52388312 90.30834961 63.31567383 C90.83041992 65.15258789 90.83041992 65.15258789 91.36303711 67.02661133 C92.78802216 73.55985653 92.64347123 80.20851133 92.62402344 86.86181641 C92.62087057 89.11320801 92.64436093 91.3632726 92.66967773 93.61450195 C92.77817692 118.12839983 82.27426843 139.02874082 65.43334961 156.50317383 C53.20917993 168.39294373 38.71307012 175.29024109 22.30834961 179.31567383 C21.73101074 179.49146973 21.15367188 179.66726562 20.55883789 179.84838867 C15.48850782 180.90117797 10.15998921 180.54198342 4.99389648 180.5559082 C2.84309779 180.56551856 0.69329542 180.59651869 -1.45727539 180.62817383 C-19.50667289 180.76770008 -33.86233425 174.48292737 -49.69165039 166.31567383 C-49.69165039 165.65567383 -49.69165039 164.99567383 -49.69165039 164.31567383 C-50.41352539 164.06817383 -51.13540039 163.82067383 -51.87915039 163.56567383 C-54.96771621 162.19297791 -57.20176457 160.59214087 -59.69165039 158.31567383 C-59.69165039 157.65567383 -59.69165039 156.99567383 -59.69165039 156.31567383 C-60.35165039 156.31567383 -61.01165039 156.31567383 -61.69165039 156.31567383 C-61.69165039 155.65567383 -61.69165039 154.99567383 -61.69165039 154.31567383 C-62.35165039 154.31567383 -63.01165039 154.31567383 -63.69165039 154.31567383 C-63.69165039 153.65567383 -63.69165039 152.99567383 -63.69165039 152.31567383 C-64.68165039 151.98567383 -65.67165039 151.65567383 -66.69165039 151.31567383 C-68.07836914 149.75708008 -68.07836914 149.75708008 -69.37915039 147.87817383 C-69.81614258 147.26071289 -70.25313477 146.64325195 -70.70336914 146.00708008 C-71.69165039 144.31567383 -71.69165039 144.31567383 -71.69165039 142.31567383 C-72.35165039 142.31567383 -73.01165039 142.31567383 -73.69165039 142.31567383 C-82.19927497 125.85796318 -88.06625406 111.50158249 -88.00732422 92.67895508 C-88.00417696 90.5833667 -88.02764664 88.4892124 -88.05297852 86.39379883 C-88.14793978 66.35741603 -81.26447932 47.03170999 -68.69165039 31.31567383 C-68.03165039 31.31567383 -67.37165039 31.31567383 -66.69165039 31.31567383 C-66.48540039 30.77942383 -66.27915039 30.24317383 -66.06665039 29.69067383 C-64.15914613 26.39589374 -61.64345655 23.72203755 -58.69165039 21.31567383 C-58.03165039 21.31567383 -57.37165039 21.31567383 -56.69165039 21.31567383 C-56.69165039 20.65567383 -56.69165039 19.99567383 -56.69165039 19.31567383 C-40.02173709 6.73400923 -20.73007541 -0.06471408 0 0 Z " fill="#020202" transform="translate(87.691650390625,-0.315673828125)"/>
<path d="M0 0 C2.1065693 0.00315246 4.21171931 -0.02034117 6.31811523 -0.0456543 C14.69209436 -0.08470859 22.26654812 0.8293083 30.30834961 3.31567383 C31.44530273 3.63149414 32.58225586 3.94731445 33.75366211 4.27270508 C39.6100411 6.14230712 44.68245995 8.4285405 49.85913086 11.75317383 C51.77194927 12.97347265 53.74381818 14.10133508 55.73413086 15.19067383 C73.06033539 25.0394005 85.05831961 44.52388312 90.30834961 63.31567383 C90.83041992 65.15258789 90.83041992 65.15258789 91.36303711 67.02661133 C92.78802216 73.55985653 92.64347123 80.20851133 92.62402344 86.86181641 C92.62087057 89.11320801 92.64436093 91.3632726 92.66967773 93.61450195 C92.77817692 118.12839983 82.27426843 139.02874082 65.43334961 156.50317383 C53.20917993 168.39294373 38.71307012 175.29024109 22.30834961 179.31567383 C21.73101074 179.49146973 21.15367188 179.66726562 20.55883789 179.84838867 C15.48850782 180.90117797 10.15998921 180.54198342 4.99389648 180.5559082 C2.84309779 180.56551856 0.69329542 180.59651869 -1.45727539 180.62817383 C-19.50667289 180.76770008 -33.86233425 174.48292737 -49.69165039 166.31567383 C-49.69165039 165.65567383 -49.69165039 164.99567383 -49.69165039 164.31567383 C-50.41352539 164.06817383 -51.13540039 163.82067383 -51.87915039 163.56567383 C-54.96771621 162.19297791 -57.20176457 160.59214087 -59.69165039 158.31567383 C-59.69165039 157.65567383 -59.69165039 156.99567383 -59.69165039 156.31567383 C-60.35165039 156.31567383 -61.01165039 156.31567383 -61.69165039 156.31567383 C-61.69165039 155.65567383 -61.69165039 154.99567383 -61.69165039 154.31567383 C-62.35165039 154.31567383 -63.01165039 154.31567383 -63.69165039 154.31567383 C-63.69165039 153.65567383 -63.69165039 152.99567383 -63.69165039 152.31567383 C-64.68165039 151.98567383 -65.67165039 151.65567383 -66.69165039 151.31567383 C-68.07836914 149.75708008 -68.07836914 149.75708008 -69.37915039 147.87817383 C-69.81614258 147.26071289 -70.25313477 146.64325195 -70.70336914 146.00708008 C-71.69165039 144.31567383 -71.69165039 144.31567383 -71.69165039 142.31567383 C-72.35165039 142.31567383 -73.01165039 142.31567383 -73.69165039 142.31567383 C-82.19927497 125.85796318 -88.06625406 111.50158249 -88.00732422 92.67895508 C-88.00417696 90.5833667 -88.02764664 88.4892124 -88.05297852 86.39379883 C-88.14793978 66.35741603 -81.26447932 47.03170999 -68.69165039 31.31567383 C-68.03165039 31.31567383 -67.37165039 31.31567383 -66.69165039 31.31567383 C-66.48540039 30.77942383 -66.27915039 30.24317383 -66.06665039 29.69067383 C-64.15914613 26.39589374 -61.64345655 23.72203755 -58.69165039 21.31567383 C-58.03165039 21.31567383 -57.37165039 21.31567383 -56.69165039 21.31567383 C-56.69165039 20.65567383 -56.69165039 19.99567383 -56.69165039 19.31567383 C-40.02173709 6.73400923 -20.73007541 -0.06471408 0 0 Z M-54.00415039 41.03442383 C-68.42637737 59.54944495 -73.48350236 77.73641324 -71.37133789 100.81567383 C-68.75135105 120.63230158 -60.12280455 136.65627226 -44.69165039 149.31567383 C-26.67802326 162.39078241 -7.3944889 166.81659161 14.51538086 163.81567383 C34.76188813 160.14586407 52.00338727 149.39778173 64.49584961 133.02661133 C76.29619113 115.3769626 79.07262579 93.38975583 75.64819336 72.71411133 C71.68394961 53.33540213 60.42196955 38.35207329 44.30834961 27.31567383 C30.71571777 18.55957369 17.87077474 15.99375432 1.99584961 15.87817383 C0.91086182 15.86794189 -0.17412598 15.85770996 -1.29199219 15.84716797 C-21.55086013 16.06816256 -40.90013493 25.6283516 -54.00415039 41.03442383 Z " fill="#F6F6F6" transform="translate(87.691650390625,-0.315673828125)"/>
<path d="M0 0 C16.5 0 33 0 50 0 C50 1.65 50 3.3 50 5 C47.03 5.66 44.06 6.32 41 7 C39.53970742 11.60822867 40.67827884 14.76565077 42.4375 19.0625 C42.7046582 19.74425293 42.97181641 20.42600586 43.24707031 21.12841797 C44.15113912 23.42458818 45.07464524 25.71233027 46 28 C46.7050505 29.76146935 47.409459 31.52319577 48.11328125 33.28515625 C49.16456221 35.91634456 50.21811909 38.54638655 51.28295898 41.17211914 C52.99740272 45.4107352 54.61665924 49.63824188 56 54 C60.02588703 46.51514334 63.16021 38.77760085 66.0769043 30.81274414 C66.8168594 28.80064585 67.57500408 26.79600282 68.33398438 24.79101562 C68.81361889 23.49260027 69.29217336 22.19378532 69.76953125 20.89453125 C70.19854736 19.73800049 70.62756348 18.58146973 71.06958008 17.38989258 C72.06000587 13.78137459 72.1691495 10.72395518 72 7 C67.05 6.01 67.05 6.01 62 5 C62 3.35 62 1.7 62 0 C71.9 0 81.8 0 92 0 C92 1.65 92 3.3 92 5 C90.948125 5.309375 89.89625 5.61875 88.8125 5.9375 C79.40951853 10.11530405 76.00137082 26.49594811 72.4375 35.4375 C71.77202516 37.09461832 71.10601326 38.75152106 70.43945312 40.40820312 C68.87767621 44.29345939 67.32211404 48.18115486 65.77008057 52.0703125 C64.8235906 54.44205117 63.87476833 56.81285329 62.92578125 59.18359375 C62.28383889 60.78905639 61.64191357 62.39452585 61 64 C59.99482134 66.51303271 58.98961287 69.02605348 57.984375 71.5390625 C57.45051907 72.87369721 56.91666492 74.20833263 56.3828125 75.54296875 C53.921875 81.6953125 51.4609375 87.84765625 49 94 C47.35 94 45.7 94 44 94 C39.32575121 84.28141666 35.28427812 74.37847429 31.33682251 64.34915161 C26.34241843 51.67617674 21.29527151 39.0332691 15.8125 26.5625 C15.18178589 25.12052246 15.18178589 25.12052246 14.53833008 23.64941406 C10.47055802 12.89518568 10.47055802 12.89518568 2.6875 5.4375 C1.800625 5.293125 0.91375 5.14875 0 5 C0 3.35 0 1.7 0 0 Z " fill="#FAFAFA" transform="translate(44,49)"/>
</svg>
