<svg xmlns="http://www.w3.org/2000/svg">
  <defs>
    <symbol id="email" viewBox="0 0 512 512">
      <path d="M64 112c-8.8 0-16 7.2-16 16v22.1L220.5 291.7c20.7 17 50.4 17 71.1 0L464 150.1V128c0-8.8-7.2-16-16-16H64zM48 212.2V384c0 8.8 7.2 16 16 16H448c8.8 0 16-7.2 16-16V212.2L322 328.8c-38.4 31.5-93.7 31.5-132 0L48 212.2zM0 128C0 92.7 28.7 64 64 64H448c35.3 0 64 28.7 64 64V384c0 35.3-28.7 64-64 64H64c-35.3 0-64-28.7-64-64V128z"/>
    </symbol>
    <symbol id="github" viewBox="0 0 496 512">
      <path d="M165.9 397.4c0 2-2.3 3.6-5.2 3.6-3.3 .3-5.6-1.3-5.6-3.6 0-2 2.3-3.6 5.2-3.6 3-.3 5.6 1.3 5.6 3.6zm-31.1-4.5c-.7 2 1.3 4.3 4.3 4.9 2.6 1 5.6 0 6.2-2s-1.3-4.3-4.3-5.2c-2.6-.7-5.5 .3-6.2 2.3zm44.2-1.7c-2.9 .7-4.9 2.6-4.6 4.9 .3 2 2.9 3.3 5.9 2.6 2.9-.7 4.9-2.6 4.6-4.6-.3-1.9-3-3.2-5.9-2.9zM244.8 8C106.1 8 0 113.3 0 252c0 110.9 69.8 205.8 169.5 239.2 12.8 2.3 17.3-5.6 17.3-12.1 0-6.2-.3-40.4-.3-61.4 0 0-70 15-84.7-29.8 0 0-11.4-29.1-27.8-36.6 0 0-22.9-15.7 1.6-15.4 0 0 24.9 2 38.6 25.8 21.9 38.6 58.6 27.5 72.9 20.9 2.3-16 8.8-27.1 16-33.7-55.9-6.2-112.3-14.3-112.3-110.5 0-27.5 7.6-41.3 23.6-58.9-2.6-6.5-11.1-33.3 2.6-67.9 20.9-6.5 69 27 69 27 20-5.6 41.5-8.5 62.8-8.5s42.8 2.9 62.8 8.5c0 0 48.1-33.6 69-27 13.7 34.7 5.2 61.4 2.6 67.9 16 17.7 25.8 31.5 25.8 58.9 0 96.5-58.9 104.2-114.8 110.5 9.2 7.9 17 22.9 17 46.4 0 33.7-.3 75.4-.3 83.6 0 6.5 4.6 14.4 17.3 12.1C428.2 457.8 496 362.9 496 252 496 113.3 383.5 8 244.8 8zM97.2 352.9c-1.3 1-1 3.3 .7 5.2 1.6 1.6 3.9 2.3 5.2 1 1.3-1 1-3.3-.7-5.2-1.6-1.6-3.9-2.3-5.2-1zm-10.8-8.1c-.7 1.3 .3 2.9 2.3 3.9 1.6 1 3.6 .7 4.3-.7 .7-1.3-.3-2.9-2.3-3.9-2-.6-3.6-.3-4.3 .7zm32.4 35.6c-1.6 1.3-1 4.3 1.3 6.2 2.3 2.3 5.2 2.6 6.5 1 1.3-1.3 .7-4.3-1.3-6.2-2.2-2.3-5.2-2.6-6.5-1zm-11.4-14.7c-1.6 1-1.6 3.6 0 5.9 1.6 2.3 4.3 3.3 5.6 2.3 1.6-1.3 1.6-3.9 0-6.2-1.4-2.3-4-3.3-5.6-2z"/>
    </symbol>
    <symbol id="linkedin" viewBox="0 0 448 512">
      <path d="M416 32H31.9C14.3 32 0 46.5 0 64.3v383.4C0 465.5 14.3 480 31.9 480H416c17.6 0 32-14.5 32-32.3V64.3c0-17.8-14.4-32.3-32-32.3zM135.4 416H69V202.2h66.5V416zm-33.2-243c-21.3 0-38.5-17.3-38.5-38.5S80.9 96 102.2 96c21.2 0 38.5 17.3 38.5 38.5 0 21.3-17.2 38.5-38.5 38.5zm282.1 243h-66.4V312c0-24.8-.5-56.7-34.5-56.7-34.6 0-39.9 27-39.9 54.9V416h-66.4V202.2h63.7v29.2h.9c8.9-16.8 30.6-34.5 62.9-34.5 67.2 0 79.7 44.3 79.7 101.9V416z"/>
    </symbol>
    <symbol id="twitter-x" viewBox="0 0 512 512">
      <path d="M389.2 48h70.6L305.6 224.2 487 464H345L233.7 318.6 106.5 464H35.8L200.7 275.5 26.8 48H172.4L272.9 180.9 389.2 48zM364.4 421.8h39.1L151.1 88h-42L364.4 421.8z"/>
    </symbol>
    <symbol id="resume" viewBox="0 0 66 66">
    <path d="M53.06 53.18c-.55 0-1 .45-1 1v5.41a3.48 3.48 0 0 1-3.48 3.47c-.93 0-1.79-.36-2.45-1.02a3.386 3.386 0 0 1-1.02-2.44v-4.48c0-.55-.45-1-1-1H9.47V21.06c0-.55-.45-1-1-1s-1 .45-1 1v33.06h-5.9c-.55 0-1 .45-1 1v4.59c0 2.95 2.4 5.35 5.35 5.35h42.66c3.02 0 5.48-2.45 5.48-5.47v-5.41c0-.55-.45-1-1-1zM5.92 63.06a3.35 3.35 0 0 1-3.35-3.35v-3.59h40.55v3.48c0 1.29.44 2.5 1.24 3.47H5.92z"></path><path d="M50.59 6.39H25.85v-2.2c0-1.8-1.46-3.26-3.25-3.26H4.65a3.26 3.26 0 0 0-3.26 3.26v10.32c0 1.79 1.46 3.25 3.26 3.25h9.84l5.09 4.64c.19.17.43.26.67.26.14 0 .27-.03.4-.09.36-.16.6-.52.6-.91v-3.9h1.34c1.79 0 3.25-1.46 3.25-3.25V8.39h24.75c.81 0 1.46.66 1.46 1.46v39.33c0 .55.45 1 1 1s1-.45 1-1V9.86a3.463 3.463 0 0 0-3.46-3.47zm-26.74 8.13c0 .69-.56 1.25-1.25 1.25h-2.34c-.55 0-1 .45-1 1v2.64l-3.71-3.38a.971.971 0 0 0-.67-.26H4.65c-.69 0-1.26-.56-1.26-1.25V4.19c0-.69.56-1.26 1.26-1.26H22.6c.69 0 1.25.56 1.25 1.26v10.33zm-8.24 36.15h30.3c.55 0 1-.45 1-1s-.45-1-1-1h-30.3c-.55 0-1 .45-1 1s.45 1 1 1z"></path><path d="M14.61 39.35c0 .55.45 1 1 1h30.3c.55 0 1-.45 1-1s-.45-1-1-1h-30.3c-.55 0-1 .44-1 1zm1 6.16h30.3c.55 0 1-.45 1-1s-.45-1-1-1h-30.3c-.55 0-1 .45-1 1s.45 1 1 1zm4.71-11.33c0 .55.45 1 1 1h18.89c.55 0 1-.45 1-1s-.45-1-1-1H21.32c-.55 0-1 .45-1 1zm2.36-5.59c0 .55.45 1 1 1h14.17c.55 0 1-.45 1-1 0-3.33-2.03-6.2-4.92-7.44.76-.79 1.24-1.87 1.24-3.05 0-2.43-1.98-4.41-4.41-4.41s-4.41 1.98-4.41 4.41c0 1.19.48 2.26 1.24 3.05-2.88 1.24-4.91 4.11-4.91 7.44zm5.68-10.48c0-1.33 1.08-2.41 2.41-2.41s2.41 1.08 2.41 2.41-1.08 2.41-2.41 2.41a2.424 2.424 0 0 1-2.41-2.41zm2.41 4.4c3.01 0 5.52 2.2 6 5.08h-12a6.078 6.078 0 0 1 6-5.08zm34.66-2.35c0-1.41-1.15-2.56-2.55-2.56h-3.71c-1.41 0-2.55 1.15-2.55 2.56v34.53c0 .01.01.02.01.03 0 .1.02.21.05.31l3.41 9.38c.14.4.52.66.94.66s.8-.26.94-.66l3.41-9.38c.04-.1.05-.2.05-.31 0-.01.01-.02.01-.03l-.01-34.53zM61.51 59.8l-.49 1.34-.89-2.44-1.09-3.01H63l-1.49 4.11zm-2.9-6.11V26.02h4.82v27.67h-4.82zm0-33.53c0-.31.25-.56.55-.56h3.71c.31 0 .55.25.55.56v3.86H58.6v-3.86zM16.62 6.22l-4.34 4.34-1.67-1.67A.996.996 0 1 0 9.2 10.3l2.38 2.38c.2.2.45.29.71.29s.51-.1.71-.29l5.05-5.05c.39-.39.39-1.02 0-1.41s-1.03-.39-1.43 0z"></path>
    </symbol>
</defs>
</svg>