<svg xmlns="http://www.w3.org/2000/svg">
  <defs>
    <!-- astro icon -->
    <symbol id="astro" viewBox="0 0 85 107">
      <path d="M27.5894 91.1365C22.7555 86.7178 21.3444 77.4335 23.3583 70.7072C26.8503 74.948 31.6888 76.2914 36.7005 77.0497C44.4375 78.2199 52.0359 77.7822 59.2232 74.2459C60.0454 73.841 60.8052 73.3027 61.7036 72.7574C62.378 74.714 62.5535 76.6892 62.318 78.6996C61.7452 83.5957 59.3086 87.3778 55.4332 90.2448C53.8835 91.3916 52.2437 92.4167 50.6432 93.4979C45.7262 96.8213 44.3959 100.718 46.2435 106.386C46.2874 106.525 46.3267 106.663 46.426 107C43.9155 105.876 42.0817 104.24 40.6845 102.089C39.2087 99.8193 38.5066 97.3081 38.4696 94.5909C38.4511 93.2686 38.4511 91.9345 38.2733 90.6309C37.8391 87.4527 36.3471 86.0297 33.5364 85.9478C30.6518 85.8636 28.37 87.6469 27.7649 90.4554C27.7187 90.6707 27.6517 90.8837 27.5847 91.1341L27.5894 91.1365Z" fill="#F041FF"/>
      <path d="M0 69.5866C0 69.5866 14.3139 62.6137 28.6678 62.6137L39.4901 29.1204C39.8953 27.5007 41.0783 26.3999 42.4139 26.3999C43.7495 26.3999 44.9325 27.5007 45.3377 29.1204L56.1601 62.6137C73.1601 62.6137 84.8278 69.5866 84.8278 69.5866C84.8278 69.5866 60.5145 3.35233 60.467 3.21944C59.7692 1.2612 58.5911 0 57.0029 0H27.8274C26.2392 0 25.1087 1.2612 24.3634 3.21944C24.3108 3.34983 0 69.5866 0 69.5866Z" fill="currentColor"/>
    </symbol>

    <!-- javascript icon -->
    <symbol id="javascript" viewBox="0 0 630 630">
      <rect width="630" height="630" fill="#f7df1e"/>
      <path fill="black" d="m423.2 492.19c12.69 20.72 29.2 35.95 58.4 35.95 24.53 0 40.2-12.26 40.2-29.2 0-20.3-16.1-27.49-43.1-39.3l-14.8-6.35c-42.72-18.2-71.1-41-71.1-89.2 0-44.4 33.83-78.2 86.7-78.2 37.64 0 64.7 13.1 84.2 47.4l-46.1 29.6c-10.15-18.2-21.1-25.37-38.1-25.37-17.34 0-28.33 11-28.33 25.37 0 17.76 11 24.95 36.4 35.95l14.8 6.34c50.3 21.57 78.7 43.56 78.7 93 0 53.3-41.87 82.5-98.1 82.5-54.98 0-90.5-26.2-107.88-60.54zm-209.13 5.13c9.3 16.5 17.76 30.45 38.1 30.45 19.45 0 31.72-7.61 31.72-37.2v-201.3h59.2v202.1c0 61.3-35.94 89.2-88.4 89.2-47.4 0-74.85-24.53-88.81-54.075z"/>
    </symbol>

    <!-- typescript icon -->
    <symbol id="typescript" fill="none" viewBox="0 0 512 512">
      <rect fill="#3178c6" height="512" rx="50" width="512"/>
      <rect fill="#3178c6" height="512" rx="50" width="512"/>
      <path clip-rule="evenodd" fill="#fff" fill-rule="evenodd" d="m316.939 407.424v50.061c8.138 4.172 17.763 7.3 28.875 9.386s22.823 3.129 35.135 3.129c11.999 0 23.397-1.147 34.196-3.442 10.799-2.294 20.268-6.075 28.406-11.342 8.138-5.266 14.581-12.15 19.328-20.65s7.121-19.007 7.121-31.522c0-9.074-1.356-17.026-4.069-23.857s-6.625-12.906-11.738-18.225c-5.112-5.319-11.242-10.091-18.389-14.315s-15.207-8.213-24.18-11.967c-6.573-2.712-12.468-5.345-17.685-7.9-5.217-2.556-9.651-5.163-13.303-7.822-3.652-2.66-6.469-5.476-8.451-8.448-1.982-2.973-2.974-6.336-2.974-10.091 0-3.441.887-6.544 2.661-9.308s4.278-5.136 7.512-7.118c3.235-1.981 7.199-3.52 11.894-4.615 4.696-1.095 9.912-1.642 15.651-1.642 4.173 0 8.581.313 13.224.938 4.643.626 9.312 1.591 14.008 2.894 4.695 1.304 9.259 2.947 13.694 4.928 4.434 1.982 8.529 4.276 12.285 6.884v-46.776c-7.616-2.92-15.937-5.084-24.962-6.492s-19.381-2.112-31.066-2.112c-11.895 0-23.163 1.278-33.805 3.833s-20.006 6.544-28.093 11.967c-8.086 5.424-14.476 12.333-19.171 20.729-4.695 8.395-7.043 18.433-7.043 30.114 0 14.914 4.304 27.638 12.912 38.172 8.607 10.533 21.675 19.45 39.204 26.751 6.886 2.816 13.303 5.579 19.25 8.291s11.086 5.528 15.415 8.448c4.33 2.92 7.747 6.101 10.252 9.543 2.504 3.441 3.756 7.352 3.756 11.733 0 3.233-.783 6.231-2.348 8.995s-3.939 5.162-7.121 7.196-7.147 3.624-11.894 4.771c-4.748 1.148-10.303 1.721-16.668 1.721-10.851 0-21.597-1.903-32.24-5.71-10.642-3.806-20.502-9.516-29.579-17.13zm-84.159-123.342h64.22v-41.082h-179v41.082h63.906v182.918h50.874z"/>
    </symbol>

    <!-- tailwind icon -->
    <symbol id="tailwind" viewBox="0 0 47 40" fill="none">
      <path fill="#6366f1" d="M23.5 6.5C17.5 6.5 13.75 9.5 12.25 15.5C14.5 12.5 17.125 11.375 20.125 12.125C21.8367 12.5529 23.0601 13.7947 24.4142 15.1692C26.6202 17.4084 29.1734 20 34.75 20C40.75 20 44.5 17 46 11C43.75 14 41.125 15.125 38.125 14.375C36.4133 13.9471 35.1899 12.7053 33.8357 11.3308C31.6297 9.09158 29.0766 6.5 23.5 6.5ZM12.25 20C6.25 20 2.5 23 1 29C3.25 26 5.875 24.875 8.875 25.625C10.5867 26.0529 11.8101 27.2947 13.1642 28.6693C15.3702 30.9084 17.9234 33.5 23.5 33.5C29.5 33.5 33.25 30.5 34.75 24.5C32.5 27.5 29.875 28.625 26.875 27.875C25.1633 27.4471 23.9399 26.2053 22.5858 24.8307C20.3798 22.5916 17.8266 20 12.25 20Z"/>
    </symbol>


    <!-- python icon -->
    <symbol id="python" viewBox="0 0 48 48">
      <path fill="#0277BD" d="M24.047,5c-1.555,0.005-2.633,0.142-3.936,0.367c-3.848,0.67-4.549,2.077-4.549,4.67V14h9v2H15.22h-4.35c-2.636,0-4.943,1.242-5.674,4.219c-0.826,3.417-0.863,5.557,0,9.125C5.851,32.005,7.294,34,9.931,34h3.632v-5.104c0-2.966,2.686-5.896,5.764-5.896h7.236c2.523,0,5-1.862,5-4.377v-8.586c0-2.439-1.759-4.263-4.218-4.672C27.406,5.359,25.589,4.994,24.047,5z M19.063,9c0.821,0,1.5,0.677,1.5,1.502c0,0.833-0.679,1.498-1.5,1.498c-0.837,0-1.5-0.664-1.5-1.498C17.563,9.68,18.226,9,19.063,9z"></path><path fill="#FFC107" d="M23.078,43c1.555-0.005,2.633-0.142,3.936-0.367c3.848-0.67,4.549-2.077,4.549-4.67V34h-9v-2h9.343h4.35c2.636,0,4.943-1.242,5.674-4.219c0.826-3.417,0.863-5.557,0-9.125C41.274,15.995,39.831,14,37.194,14h-3.632v5.104c0,2.966-2.686,5.896-5.764,5.896h-7.236c-2.523,0-5,1.862-5,4.377v8.586c0,2.439,1.759,4.263,4.218,4.672C19.719,42.641,21.536,43.006,23.078,43z M28.063,39c-0.821,0-1.5-0.677-1.5-1.502c0-0.833,0.679-1.498,1.5-1.498c0.837,0,1.5,0.664,1.5,1.498C29.563,38.32,28.899,39,28.063,39z"></path>
    </symbol>

    <!-- streamlit icon -->
    <symbol id="streamlit" viewBox="0 0 301 165">
    <path fill="#FF4B4B" d="M123.888 2.182c1.92-2.91 6.258-2.91 8.25 0l40.753 60.75l43.321 64.519a17.903 17.903 0 0 1-1.764 2.581c-.452.539-.88 1.048-1.414 1.571l-.011-.005l.01.005c-.117.112-.23.2-.37.306l-.15.115c-.49.366-.995.712-1.514 1.038c-.42.263-.767.495-1.269.736c-.5.242-1.302.532-1.784.697c-.483.167-.644.223-1 .302c-.178.035-.356.07-.533.092c-.122.021-.242.042-.363.057c-.021.007-.05.007-.07.014l-.542.064c-.568.057-1.159.086-1.763.086a697.794 697.794 0 0 1-151.26 0c-.058 0-.114 0-.172-.008h-.17l-.079-.007h-.077c-.058-.007-.115-.007-.171-.014h-.057c-.079-.007-.15-.007-.227-.014c-.47-.036-1.016-.154-1.408-.241c-.393-.079-.627-.143-.953-.215c-3.87-.917-7.424-3.25-9.053-7.025c-.043-.1-.079-.199-.122-.299l-.006-.021L.225 26.025c-1.067-2.844 1.85-5.69 4.693-4.338c.072 0 .214 0 .286.071l77.902 41.173Zm127.006 19.577c2.852-1.564 5.91 1.137 4.914 4.124v.143l-39.595 101.426l-43.321-64.52l77.931-41.173Z"/><path fill="#7D353B" d="M250.894 21.759h-.07l-77.932 41.173l43.321 64.52l39.595-101.426v-.143c.996-2.987-2.062-5.688-4.914-4.124"/><path fill="#BD4043" d="M132.138 2.182c-1.992-2.91-6.33-2.91-8.25 0l-40.782 60.75l44.878 23.723l85.05 44.948c.534-.523.962-1.032 1.414-1.57a17.903 17.903 0 0 0 1.764-2.582l-43.32-64.519l-40.754-60.75Z"/>
    </symbol>

    <!--  sql icon -->
    <symbol id="sql" viewBox="0 0 24 24">
        <path d="m5 10.5v3.5h1c.99 0 1.87.49 2.42 1.24.8-.76 1.88-1.24 3.08-1.24h1c1.2 0 2.28.48 3.08 1.24.55-.75 1.43-1.24 2.42-1.24.35 0 .69.06 1 .18v-3.68z" fill="#ffc107"/><path d="m12 13c-.717 0-7-.07-7-2.5v-4h14v4c0 2.43-6.283 2.5-7 2.5z" fill="#ffd54f"/><path d="m12 9c-.717 0-7-.07-7-2.5v-4h14v4c0 2.43-6.283 2.5-7 2.5z" fill="#ffc107"/><path d="m12 5c-.717 0-7-.07-7-2.5 0-2.43 6.283-2.5 7-2.5s7 .07 7 2.5-6.283 2.5-7 2.5z" fill="#ffd54f"/><path d="m5 10.5v3.5h1c.99 0 1.87.49 2.42 1.24.8-.76 1.88-1.24 3.08-1.24h.5v-1c-.717 0-7-.07-7-2.5z" fill="#dea806"/><path d="m5 6.5v4c0 2.43 6.283 2.5 7 2.5v-4c-.717 0-7-.07-7-2.5z" fill="#deb945"/><path d="m5 2.5v4c0 2.43 6.283 2.5 7 2.5v-4c-.717 0-7-.07-7-2.5z" fill="#dea806"/><path d="m12 0c-.717 0-7 .07-7 2.5 0 2.43 6.283 2.5 7 2.5z" fill="#deb945"/><g fill="#2196f3"><path d="m15 18.5c0-1.378-1.121-2.5-2.5-2.5h-1c-1.379 0-2.5 1.122-2.5 2.5v3c0 1.378 1.121 2.5 2.5 2.5h1c.336 0 .656-.069.949-.189.168.114.356.189.551.189.256 0 .512-.098.707-.293.345-.345.367-.869.104-1.258.121-.293.189-.613.189-.949zm-4 3v-3c0-.276.225-.5.5-.5h1c.275 0 .5.224.5.5v2.155c-.384-.226-.878-.192-1.207.138s-.364.824-.138 1.207h-.155c-.275 0-.5-.224-.5-.5z"/><path d="m21 24h-3c-.553 0-1-.448-1-1v-6c0-.552.447-1 1-1s1 .448 1 1v5h2c.553 0 1 .448 1 1s-.447 1-1 1z"/><path d="m4.5 24h-1.5c-.553 0-1-.448-1-1s.447-1 1-1h1.5c.275 0 .5-.224.5-.5s-.225-.5-.5-.5c-1.379 0-2.5-1.122-2.5-2.5s1.121-2.5 2.5-2.5h1.5c.553 0 1 .448 1 1s-.447 1-1 1h-1.5c-.275 0-.5.224-.5.5s.225.5.5.5c1.379 0 2.5 1.122 2.5 2.5s-1.121 2.5-2.5 2.5z"/></g><path d="m15 20.063h-2v.593c-.162-.095-.344-.145-.525-.145-.247 0-.492.092-.683.282-.329.33-.364.824-.138 1.207h-.154c-.275 0-.5-.224-.5-.5v-1.437h-2v1.437c0 1.378 1.121 2.5 2.5 2.5h1c.336 0 .656-.069.949-.189.168.114.356.189.551.189.256 0 .512-.098.707-.293.345-.345.367-.869.104-1.258.121-.293.189-.613.189-.949z" fill="#1d83d4"/><path d="m19 20.063h-2v2.937c0 .552.447 1 1 1h3c.553 0 1-.448 1-1s-.447-1-1-1h-2z" fill="#1d83d4"/><path d="m6.544 20.063h-3.994c.458.571 1.162.937 1.95.937.275 0 .5.224.5.5s-.225.5-.5.5h-1.5c-.553 0-1 .448-1 1s.447 1 1 1h1.5c1.379 0 2.5-1.122 2.5-2.5 0-.535-.169-1.031-.456-1.437z" fill="#1d83d4"/>
    </symbol>

        <!--  pandas icon -->
    <symbol id="pandas" viewBox="0 0 128 128">
    <path style="-inkscape-stroke:none" d="M48.697 15.176h12.25v25.437h-12.25zm0 52.251h12.25v25.436h-12.25z" color="#000" fill="#130754"/><path style="-inkscape-stroke:none" d="M48.697 48.037h12.25v12.001h-12.25z" color="#000" fill="#ffca00"/><path style="-inkscape-stroke:none" d="M29.017 36.087h12.25v84.552h-12.25zM67.97 88.414h12.25v25.436H67.97zm0-52.297h12.25v25.437H67.97z" color="#000" fill="#130754"/><path style="-inkscape-stroke:none" d="M67.97 68.983h12.25v12.001H67.97z" color="#000" fill="#e70488"/><path style="-inkscape-stroke:none" d="M87.238 8.55h12.25v84.552h-12.25z" color="#000" fill="#130754"/>
    </symbol>

    <!--  numpy icon -->
    <symbol id="numpy" viewBox="0 0 128 128">
    <path d="M54.32 27.164L33.304 16.559 10.226 28.071l21.594 10.84zM63.961 32.031L86 43.16 63.137 54.637 41.512 43.782zM93.398 16.715l22.645 11.355-20.254 10.168-22.082-11.141zM83.652 11.824L63.265 1.601 43.101 11.667l21.008 10.59zM67.715 99.605v27.816l24.695-12.324-.023-27.828zM92.375 77.555l-.027-27.535-24.633 12.246v27.547zM122.02 72.398v27.926l-21.066 10.508-.016-27.797zM122.02 62.633V35.266l-21.105 10.492.016 27.59z" color="#000" fill="#4cabcf" style="-inkscape-stroke:none"/><path d="M58.996 62.266l-16.629-8.367v36.14S22.019 46.756 20.14 42.865c-.242-.504-1.242-1.051-1.496-1.188-3.668-1.914-14.355-7.324-14.355-7.324v63.871l14.785 7.926V72.75s20.129 38.676 20.336 39.102c.21.422 2.219 4.492 4.383 5.926 2.87 1.906 15.195 9.316 15.195 9.316z" color="#000" fill="#4c75cf" style="-inkscape-stroke:none"/>
    </symbol>

    <!--  matplotlib icon -->
    <symbol id="matplotlib" viewBox="0 0 128 128">
    <path fill="#fff" d="M63.975 125.09c-16.317 0-31.658-6.355-43.197-17.893S2.885 80.318 2.885 64 9.24 32.341 20.778 20.803 47.657 2.91 63.975 2.91s31.659 6.355 43.198 17.893S125.065 47.682 125.065 64s-6.355 31.659-17.893 43.198-26.879 17.892-43.197 17.892z"/><path fill="none" stroke="#858585" stroke-dasharray=".407,.8139" stroke-linecap="round" stroke-linejoin="round" stroke-miterlimit="7.976" stroke-width=".856" d="M63.974 63.784h61.09m-61.09 0 43.197-43.196M63.974 63.784V2.694m0 61.09L20.778 20.588m43.196 43.196H2.884m61.09 0-43.196 43.197m43.196-43.197v61.09m0-61.09 43.197 43.197" opacity=".9"/><g fill="none" stroke="#818181" stroke-dasharray=".407,.8139" stroke-linecap="square" stroke-linejoin="round" stroke-miterlimit="199.409" stroke-width=".856"><path d="m70.764 63.784-.202-1.643-.593-1.543-.949-1.355-1.25-1.085-1.474-.751-1.61-.373-1.654.03-1.599.429-1.447.801-1.209 1.128-.9 1.388-.539 1.565-.145 1.649.259 1.634.646 1.523.994 1.321 1.286 1.041 1.5.698 1.623.316 1.653-.086 1.582-.484 1.418-.852 1.17-1.17.851-1.417.484-1.582.105-1.182h0" opacity=".9"/><path d="m84.339 63.784-.198-2.833-.59-2.779-.973-2.669-1.333-2.509-1.67-2.299-1.973-2.044-2.238-1.75-2.461-1.42-2.633-1.064-2.758-.688-2.825-.297-2.84.099-2.797.494-2.702.877-2.554 1.246-2.356 1.588-2.111 1.901-1.826 2.177-1.506 2.408-1.155 2.596-.782 2.73-.396 2.814v2.842l.396 2.814.782 2.73 1.155 2.596 1.506 2.408 1.826 2.177 2.111 1.902 2.356 1.588 2.554 1.245 2.702.877 2.798.494 2.84.1 2.824-.298 2.758-.687 2.633-1.065 2.461-1.42 2.238-1.75 1.973-2.044 1.67-2.299 1.333-2.51.972-2.668.591-2.779.198-2.83h0" opacity=".9"/><path d="m97.914 63.784-.185-3.548-.555-3.509-.92-3.43-1.272-3.317-1.613-3.166-1.935-2.978-2.236-2.762-2.512-2.511-2.761-2.236-2.979-1.935-3.165-1.613-3.317-1.273-3.43-.919-3.51-.555-3.548-.185-3.548.185-3.508.555-3.43.92-3.318 1.272-3.165 1.613-2.979 1.935-2.761 2.236-2.512 2.511-2.236 2.762-1.935 2.978-1.613 3.166-1.273 3.317-.919 3.43-.555 3.509-.185 3.548.185 3.548.555 3.509.92 3.43 1.272 3.317 1.613 3.166 1.935 2.978 2.236 2.762 2.512 2.511 2.761 2.236 2.979 1.935 3.165 1.614 3.317 1.272 3.43.92 3.51.555 3.547.185 3.549-.185 3.508-.556 3.43-.919 3.318-1.272 3.165-1.614 2.979-1.935 2.761-2.236 2.512-2.511 2.236-2.762 1.935-2.978 1.613-3.166 1.272-3.317.92-3.43.555-3.509.185-3.548h0" opacity=".9"/><path d="m111.489 63.784-.26-4.966-.78-4.911-1.286-4.804-1.782-4.642-2.257-4.432-2.709-4.171-3.13-3.866-3.516-3.517-3.866-3.13-4.171-2.709L83.3 20.38l-4.642-1.781-4.804-1.287-4.912-.779-4.966-.26-4.966.26-4.91.779-4.805 1.287-4.642 1.781-4.432 2.257-4.17 2.71-3.867 3.13-3.517 3.516-3.13 3.866-2.708 4.17-2.257 4.433-1.782 4.642-1.287 4.804-.778 4.911-.261 4.966.26 4.966.779 4.911 1.287 4.805 1.782 4.642 2.257 4.431 2.709 4.171 3.13 3.866 3.516 3.517 3.866 3.13 4.171 2.709 4.432 2.257 4.642 1.781 4.804 1.288 4.911.778 4.966.26 4.966-.26 4.912-.778 4.804-1.288 4.642-1.781 4.432-2.257 4.17-2.71 3.867-3.129 3.516-3.517 3.13-3.866 2.71-4.17 2.256-4.432 1.782-4.642 1.287-4.805.778-4.91.261-4.967h0" opacity=".9"/></g><path fill="#11557c" d="M64 126c-16.56 0-32.13-6.449-43.84-18.159S2 80.561 2 64s6.449-32.13 18.159-43.841S47.439 2 64 2s32.131 6.449 43.841 18.159S126 47.439 126 64s-6.449 32.131-18.159 43.841S80.561 126 64 126zM64 3.82c-16.074 0-31.187 6.26-42.553 17.626C10.08 32.813 3.82 47.925 3.82 64c0 16.075 6.26 31.188 17.626 42.554S47.925 124.18 64 124.18c16.075 0 31.188-6.26 42.554-17.626S124.18 80.075 124.18 64c0-16.075-6.26-31.187-17.626-42.554C95.187 10.08 80.075 3.82 64 3.82z"/><path fill="#004cff" d="m63.975 63.784.129-.042.129-.042.129-.042.129-.042.129-.042.129-.042.129-.042.129-.042.129-.042.129-.042.129-.042.129-.042.129-.042.129-.042.129-.042.129-.042.129-.042.129-.042.129-.042.129-.042.129-.042.129-.042.129-.042.129-.042.129-.042.129-.042.129-.042.129-.042.129-.042.129-.042.129-.042.129-.042.129-.042.129-.042.129-.042.129-.042.129-.042.129-.042.129-.042.129-.042.129-.042.129-.042.129-.042.129-.042.129-.042.129-.042.129-.042.129-.042.129-.042.129-.042.129-.042.129-.042.129-.042.129-.042.129-.042.129-.042.129-.042.129-.042.129-.042.129-.042.129-.042.129-.042.129-.042.129-.042.129-.042.129-.042.129-.042.129-.042.129-.042.129-.042.129-.042.129-.042.129-.042.129-.042.129-.042.129-.042.129-.042.129-.042.129-.042.129-.042.129-.042.129-.042.129-.042.129-.042.129-.042.129-.042.129-.042.129-.042.129-.042.129-.042.129-.042.129-.042.129-.042.129-.042.129-.042.129-.042.129-.042.129-.042.129-.042.129-.042.025.046.013.041.013.041.013.041.013.041.013.041.012.041.012.041.011.039.012.041.012.041.012.041.012.041.011.041.011.041.011.041.011.041.011.041.011.041.011.041.011.041.01.041.01.041.01.041.01.041.01.041.01.042.01.042.009.042.009.042.009.042.009.042.009.042.009.042.009.042.009.042.009.042.008.042.008.042.008.042.008.042.008.042.008.042.007.042.007.042.007.042.007.042.007.042.007.042.007.042.007.042.007.042.006.042.006.042.006.042.006.042.006.042.006.042.006.042.005.042.005.042.005.042.005.042.005.042.005.042.005.042.005.042.004.042.004.042.004.042.004.042.004.042.004.042.004.043.003.043.003.043.003.043.003.043.003.043.003.043.003.043.003.043.002.043.002.043.002.043.002.043.002.043.002.043.002.043.001.043.001.043.001.043.001.043.001.043.001.043.001.043v.172H64.11l-.135-.004z" opacity=".6"/><path fill="#ceff29" d="m63.975 63.784.143-.381.143-.381.143-.381.143-.381.143-.381.143-.381.143-.381.143-.381.143-.381.143-.381.143-.381.143-.381.143-.381.143-.381.143-.381.143-.381.143-.381.143-.381.143-.381.143-.381.143-.381.143-.381.143-.381.143-.381.143-.381.143-.381.143-.381.143-.381.143-.381.143-.381.143-.381.143-.381.143-.381.143-.381.143-.381.143-.381.143-.381.143-.381.143-.381.143-.381.143-.381.143-.381.143-.381.143-.381.143-.381.143-.381.143-.381.143-.381.143-.381.143-.381.143-.381.143-.381.143-.381.143-.381.143-.381.143-.381.143-.381.143-.381.143-.381.143-.381.143-.381.143-.381.143-.381.143-.381.143-.381.143-.381.143-.381.143-.381.143-.381.143-.381.143-.381.143-.381.143-.381.143-.381.143-.381.143-.381.143-.381.143-.381.143-.381.143-.381.143-.381.143-.381.143-.381.143-.381.143-.381.143-.381.143-.381.143-.381.143-.381.143-.381.143-.381.143-.381.143-.381.143-.381.143-.381.143-.381.143-.381.154-.411.143-.381.143-.381.12.045.12.046.119.046.119.046.119.047.119.047.119.047.119.048.119.048.118.049.118.049.118.049.118.05.118.05.118.05.117.051.117.051.117.051.117.052.117.052.117.053.116.053.116.053.116.054.116.054.116.054.116.055.115.055.115.055.115.056.115.056.115.057.115.057.114.057.114.058.114.058.114.058.114.059.113.059.113.059.113.06.113.06.113.061.113.061.112.061.112.062.112.062.112.062.112.063.111.063.111.063.111.064.111.064.111.064.11.065.11.065.11.065.11.066.11.066.109.066.109.067.109.067.109.067.108.068.108.068.108.068.108.069.108.069.107.069.107.07.107.07.107.071.107.071.106.071.106.072.106.072.106.072.105.073.105.073.105.073.105.074.104.074.104.074.104.074.104.075.104.075.103.075.103.076.103.076.103.076.102.077.102.077.102.077.102.078.101.078.101.078.101.079.101.079.1.079.1.08-.254.318-.254.318-.254.318-.254.318-.254.318-.254.318-.254.318-.254.318-.254.318-.254.318-.254.318-.254.318-.254.318-.252.324-.254.318-.254.318-.254.318-.254.318-.254.318-.253.32-.254.318-.254.318-.254.318-.254.318-.254.318-.254.318-.254.318-.254.318-.254.318-.254.318-.254.318-.254.318-.254.318-.254.318-.254.318-.254.318-.254.318-.254.318-.254.318-.254.318-.254.318-.254.318-.254.318-.254.318-.254.318-.254.318-.254.318-.254.318-.254.318-.254.318-.254.318-.252.332-.254.318-.254.318-.254.318-.254.318-.254.318-.254.32-.254.318-.254.318-.254.318-.254.318-.254.318-.254.318-.254.318-.254.318-.254.318-.254.318-.254.318-.254.318-.254.318-.254.318-.254.318-.254.318-.254.318-.254.318-.254.318-.254.318-.254.318-.254.318-.252.328-.254.318-.254.318-.254.318-.254.318-.254.318-.254.318-.254.318-.254.318-.254.318-.254.318-.254.318-.254.318-.254.318-.254.318-.254.318-.254.318-.254.318-.254.318-.253.326z" opacity=".6"/><path fill="#ff6800" d="m63.975 63.784-.348-.417-.348-.417-.348-.417-.348-.417-.348-.417-.348-.417-.348-.417-.348-.417-.348-.417-.348-.417-.348-.417-.348-.417-.348-.417-.348-.417-.348-.417-.348-.417-.348-.417-.348-.417-.348-.417-.348-.417-.348-.417-.348-.417-.348-.417-.348-.417-.348-.417-.348-.417-.348-.417-.348-.417-.348-.417-.348-.417-.348-.417-.348-.417-.348-.417-.348-.417-.348-.417-.348-.417-.348-.417-.348-.417-.348-.417-.348-.417-.348-.417-.348-.417-.348-.417-.348-.417-.348-.417-.348-.417-.348-.417-.348-.417-.348-.417-.348-.417-.348-.417-.348-.417-.348-.417-.348-.417-.348-.417-.348-.417-.348-.417-.348-.417-.348-.417-.348-.417-.348-.417-.348-.417-.348-.417-.348-.417-.348-.417-.348-.417-.348-.417-.348-.417-.348-.417-.348-.417-.348-.417-.348-.417-.348-.417-.348-.417-.348-.417-.348-.417-.348-.417-.348-.417-.348-.417-.348-.417-.348-.417-.348-.417-.348-.417-.348-.417-.348-.417-.348-.417-.348-.417-.348-.417-.348-.417-.348-.417-.348-.417-.348-.417-.348-.417-.349-.403-.348-.417-.348-.417-.348-.417-.348-.417-.348-.417-.348-.417.197-.164.198-.163.198-.162.199-.161.2-.16.201-.159.201-.158.202-.157.203-.156.204-.155.204-.154.205-.153.206-.152.206-.151.207-.15.208-.149.209-.148.209-.147.21-.146.211-.145.211-.144.212-.143.213-.142.213-.141.214-.14.215-.139.215-.138.216-.137.217-.136.217-.135.218-.134.219-.133.219-.132.22-.131.22-.13.221-.129.222-.128.222-.127.223-.126.223-.125.224-.124.225-.123.225-.122.226-.121.226-.12.227-.118.227-.117.228-.116.228-.115.229-.114.23-.113.23-.112.231-.111.231-.11.232-.109.232-.108.233-.107.233-.105.234-.104.234-.103.235-.102.235-.101.236-.1.236-.099.237-.098.237-.097.237-.095.238-.094.238-.093.239-.092.239-.091.24-.09.24-.089.24-.088.241-.086.241-.085.242-.084.242-.083.242-.082.243-.081.243-.08.244-.078.244-.077.244-.076.245-.075.245-.074.245-.073.246-.072.246-.07.246-.069.247-.068.247-.067.247-.066.248-.065.248-.063.248-.062.249-.061.249-.06.249-.059.249-.058.121.529.121.529.121.529.121.529.121.529.121.529.121.529.121.529.121.529.121.529.121.529.121.529.121.529.121.529.121.529.121.529.121.529.121.529.121.529.121.529.121.529.121.529.121.529.121.529.121.529.121.529.121.529.121.529.121.529.121.529.121.529.121.529.121.529.113.543.121.529.121.529.121.529.121.529.121.529.121.529.121.529.121.529.121.529.121.529.121.529.121.529.121.529.121.529.121.529.121.529.121.529.121.529.121.529.121.529.121.529.121.529.121.529.121.529.121.529.121.529.121.529.121.529.121.529.121.529.121.529.121.529.121.529.121.529.121.529.121.529.121.529.121.529.121.529.121.529.121.529.121.529.121.529.121.529.121.529.121.529.121.529.121.529.121.529.121.529.121.529.121.529.121.529.121.529.121.529.121.529.121.529.121.529.121.529.121.529.121.529.121.529.121.529.121.529.121.529.11.556z" opacity=".6"/><path fill="#ffc400" d="m63.975 63.784-.468.085-.468.085-.468.085-.468.085-.468.085-.468.085-.468.085-.468.085-.468.085-.463.083-.468.085-.468.085-.468.085-.468.085-.468.085-.468.085-.468.085-.468.085-.468.085-.468.085-.468.085-.462.083-.468.085-.468.085-.468.085-.466.085-.468.085-.468.085-.468.085-.468.085-.468.085-.468.085-.468.085-.468.085-.468.085-.468.085-.468.085-.468.085-.468.085-.468.085-.468.085-.468.085-.468.085-.468.085-.468.085-.468.085-.468.085-.468.085-.468.085-.456.081-.468.085-.468.085-.468.085-.468.085-.468.085-.468.085-.468.085-.468.085-.468.085-.468.085-.468.085-.468.085-.468.085-.468.085-.468.085-.468.085-.468.085-.468.085-.468.085-.468.085-.468.085-.468.085-.468.085-.468.085-.468.085-.468.085-.468.085-.468.085-.468.085-.468.085-.468.085-.468.085-.468.085-.468.085-.468.085-.45.079-.468.085-.468.085-.468.085-.466.085-.468.085-.468.085-.468.085-.468.085-.468.085-.468.085-.468.085-.468.085-.468.085-.468.085-.052-.294-.051-.294-.049-.295-.047-.295-.045-.295-.038-.297-.041-.296-.039-.296-.038-.296-.036-.296-.034-.297-.032-.297-.03-.297-.028-.297-.026-.297-.024-.298-.023-.298-.021-.298-.019-.298-.017-.298-.015-.298-.013-.298-.011-.298-.009-.298-.008-.298-.006-.298-.004-.299-.002-.299v-.299l.002-.299.004-.299.005-.298.007-.298.009-.298.011-.298.013-.298.015-.298.017-.298.019-.298.02-.298.022-.298.024-.298.026-.297.028-.297.03-.297.032-.297.034-.297.035-.296.037-.296.039-.296.041-.296.043-.295.045-.295.047-.295.048-.295.05-.294.052-.294.054-.294.056-.293.058-.293.059-.293.061-.292.063-.292.065-.291.067-.291.069-.291.07-.29.072-.29.074-.289.076-.289.078-.288.08-.288.081-.287.083-.287.085-.286.087-.286.089-.285.09-.285.092-.284.094-.283.096-.283.097-.282.099-.282.101-.281.103-.28.105-.28.106-.279.108-.278.11-.278.112-.277.113-.276.115-.276.117-.275.118-.274.12-.273.122-.273.124-.272.125-.271.127-.27.129-.269.428.206.428.206.428.206.428.206.428.206.428.206.428.206.428.206.428.206.428.206.428.206.428.206.428.206.428.206.428.206.428.206.428.206.428.206.428.206.428.206.428.206.428.206.428.206.428.206.428.206.428.206.428.206.428.206.428.206.428.206.428.206.428.206.428.206.428.206.428.206.428.206.428.206.428.206.428.206.428.206.428.206.428.206.428.206.428.206.428.206.428.206.428.206.428.206.428.206.428.206.428.206.428.206.428.206.428.206.428.206.428.206.428.206.428.206.428.206.428.206.428.206.428.206.428.206.428.206.428.206.428.206.428.206.428.206.428.206.428.206.428.206.428.206.428.206.428.206.428.206.428.206.428.206.428.206.428.206.428.206.428.206.428.206.428.206.428.206.428.206.428.206.428.206.428.206.428.206.428.206.428.206.428.206.428.206.428.206.428.206.428.206.428.206.428.206.428.206.436.223z" opacity=".6"/><path fill="#29ffce" d="m63.975 63.784-.223.155-.223.155-.223.155-.223.155-.223.155-.223.155-.223.155-.224.151-.223.155-.223.155-.223.155-.223.155-.223.155-.223.155-.223.155-.223.155-.223.155-.223.155-.223.155-.223.155-.223.155-.223.155-.223.155-.223.155-.223.155-.223.155-.223.155-.223.155-.223.155-.223.155-.223.155-.223.155-.223.155-.223.155-.223.155-.223.155-.223.155-.223.155-.223.155-.223.155-.223.155-.223.155-.223.155-.223.155-.223.155-.223.155-.223.155-.223.155-.223.155-.223.155-.223.155-.223.155-.223.155-.223.155-.232.137-.223.155-.223.155-.223.155-.223.155-.223.155-.223.155-.223.155-.223.155-.223.155-.223.155-.223.155-.223.155-.223.155-.223.155-.223.155-.223.155-.223.155-.223.155-.223.155-.223.155-.223.155-.223.155-.223.155-.223.155-.223.155-.223.155-.223.155-.223.155-.223.155-.223.155-.223.155-.223.155-.223.155-.223.155-.223.155-.223.155-.223.155-.223.155-.223.155-.223.155-.223.155-.223.155-.223.155-.231.138-.223.155-.024-.035-.024-.035-.024-.035-.024-.035-.024-.035-.024-.035-.024-.035-.024-.035-.024-.035-.024-.035-.024-.035-.024-.035-.024-.036-.024-.036-.023-.036-.023-.036-.023-.036-.023-.036-.023-.036-.023-.036-.023-.036-.023-.036-.023-.036-.023-.036-.023-.036-.023-.036-.023-.036-.023-.036-.023-.036-.023-.036-.023-.036-.023-.036-.022-.036-.022-.036-.022-.036-.022-.036-.022-.036-.022-.036-.022-.036-.022-.036-.022-.037-.022-.037-.022-.037-.022-.037-.022-.037-.022-.037-.022-.037-.022-.037-.022-.037-.021-.037-.021-.037-.021-.037-.021-.037-.021-.037-.021-.037-.021-.037-.021-.037-.021-.037-.021-.037-.021-.037-.021-.037-.021-.037-.021-.037-.021-.037-.021-.037-.021-.037-.021-.037-.02-.037-.02-.037-.02-.037-.02-.038-.02-.038-.02-.038-.02-.038-.02-.038-.02-.038-.02-.038-.02-.038-.02-.038-.02-.038-.02-.038-.02-.038-.02-.038-.019-.038-.019-.038-.019-.038-.019-.038-.019-.038-.019-.038-.019-.038-.019-.038-.019-.038-.019-.038-.019-.038-.019-.038-.019-.038-.019-.038-.019-.041-.019-.038-.019-.038.245-.118.245-.118.245-.118.245-.118.245-.118.245-.118.245-.118.245-.118.245-.118.245-.118.245-.118.245-.118.245-.118.245-.118.245-.118.245-.118.245-.118.245-.118.245-.118.245-.118.245-.118.245-.118.245-.118.245-.118.245-.118.245-.118.245-.118.245-.118.245-.118.245-.118.245-.118.245-.118.245-.118.245-.118.245-.118.245-.118.245-.118.245-.118.245-.118.245-.118.245-.118.245-.118.245-.118.245-.118.245-.118.245-.118.245-.118.245-.118.245-.118.245-.118.245-.118.245-.118.245-.118.245-.118.245-.118.245-.118.245-.118.245-.118.245-.118.245-.118.245-.118.245-.118.245-.118.245-.118.245-.118.245-.118.245-.118.245-.118.245-.118.245-.118.245-.118.245-.118.245-.118.245-.118.245-.118.245-.118.245-.118.245-.118.245-.118.245-.118.245-.118.245-.118.245-.118.245-.118.245-.118.245-.118.245-.118.245-.118.245-.118.245-.118.245-.118.245-.118.245-.118.245-.118.245-.118.245-.118.245-.118.245-.118.245-.118.208-.098z" opacity=".6"/><path fill="#7dff7a" d="m63.975 63.784.057.335.057.335.057.335.057.335.057.335.057.335.057.335.057.335.057.335.057.335.057.335.057.335.057.335.057.335.057.335.057.335.057.335.057.335.057.335.057.335.057.335.057.335.057.335.057.335.057.335.057.335.057.335.057.335.057.335.057.335.057.335.057.335.057.335.057.335.057.335.057.335.057.335.057.335.057.335.057.335.057.335.057.335.057.335.057.335.057.335.057.335.057.335.057.335.057.335.057.335.057.335.057.335.057.335.057.335.057.335.057.335.057.335.057.335.057.335.057.335.057.335.057.335.057.335.057.335.057.335.057.335.057.335.057.335.057.335.057.335.057.335.057.335.057.335.057.335.057.335.057.335.057.335.057.335.057.335.057.335.057.335.057.335.057.335.057.335.057.335.057.335.057.335.057.335.057.335.057.335.057.335.057.335.057.335.057.335.057.335.057.335.057.335.057.335.057.335.057.335-.131.022-.132.022-.132.021-.132.021-.132.02-.132.019-.132.019-.132.018-.132.018-.132.017-.132.017-.132.016-.132.016-.132.015-.132.015-.132.014-.133.014-.133.013-.133.013-.133.012-.133.012-.133.011-.133.011-.133.01-.133.01-.133.009-.133.009-.133.008-.133.007-.133.007-.133.007-.133.006-.133.005-.133.005-.133.004-.133.004-.133.003-.133.003-.133.002-.133.002-.133.001-.133.001h-.266l-.133-.001-.133-.001-.133-.002-.133-.002-.133-.003-.133-.003-.133-.004-.153-.047-.133-.005-.133-.005-.133-.006-.133-.007-.134-.007-.133-.008-.133-.008-.133-.009-.133-.009-.133-.01-.133-.01-.133-.011-.133-.011-.133-.012-.133-.012-.133-.013-.133-.013-.133-.014-.132-.015-.13-.015-.132-.015-.132-.016-.132-.017-.132-.017-.132-.018-.132-.018-.132-.019-.132-.019-.132-.02-.132-.02-.132-.021-.132-.021-.131-.022-.131-.022-.131-.023-.131-.023-.131-.024-.131-.024-.131-.025-.131-.025-.131-.026-.131-.026-.131-.027-.13-.027-.13-.028-.13-.028-.13-.029-.13-.029.076-.331.076-.331.076-.331.076-.331.076-.331.076-.331.076-.331.076-.331.076-.331.076-.331.076-.331.076-.331.076-.331.076-.331.076-.331.076-.331.076-.331.076-.331.076-.331.076-.331.076-.331.076-.331.076-.331.076-.331.076-.331.076-.331.076-.331.076-.331.076-.331.076-.331.076-.331.076-.331.076-.331.076-.331.076-.331.076-.331.076-.331.076-.331.076-.331.076-.331.076-.331.076-.331.076-.331.076-.331.076-.331.076-.331.076-.331.076-.331.076-.331.076-.331.076-.331.076-.331.076-.331.076-.331.076-.331.076-.331.076-.331.076-.331.076-.331.076-.331.076-.331.076-.331.076-.331.076-.331.076-.331.076-.331.076-.331.076-.331.076-.331.076-.331.076-.331.076-.331.076-.331.076-.331.076-.331.076-.331.076-.331.076-.331.076-.331.076-.331.076-.331.076-.331.076-.331.076-.331.076-.331.076-.331.076-.331.076-.331.076-.331.076-.331.076-.331.076-.331.076-.331.076-.331.076-.331.076-.331.076-.331.076-.331.076-.331.027-.318z" opacity=".6"/><path fill="#ff6800" d="m63.975 63.784.428.334.428.334.428.334.428.334.428.334.428.334.428.334.428.334.428.334.428.334.428.334.428.334.428.334.428.334.433.33.428.334.428.334.428.334.428.334.428.334.428.334.428.334.428.334.428.334.428.334.428.334.428.334.428.334.428.334.428.334.428.334.428.334.428.334.428.334.428.334.428.334.428.334.428.334.428.334.428.334.428.334.428.334.428.334.428.334.428.334.428.334.428.334.428.334.428.334.428.334.428.334.428.334.428.334.428.334.428.334.428.334.428.334.428.334.428.334.428.334.428.334.428.334.428.334.428.334.428.334.428.334.428.334.428.334.428.334.428.334.428.334.428.334.428.334.428.334.428.334.428.334.428.334.428.334.428.334.428.334.428.334.428.334.428.334.428.334.428.334.428.334.428.334.428.334.428.334.428.334.428.334.428.334.428.334.428.334.428.334.428.334.428.334.428.334.428.334.428.334-.079.101-.079.101-.079.1-.079.1-.08.1-.08.1-.08.1-.08.1-.081.099-.081.099-.081.099-.081.099-.082.099-.082.098-.082.098-.082.098-.083.098-.083.098-.083.097-.083.097-.083.097-.084.097-.084.097-.084.096-.084.096-.085.096-.085.096-.085.096-.085.095-.085.095-.086.095-.086.095-.086.095-.086.094-.087.094-.087.094-.087.094-.087.094-.087.093-.088.093-.088.093-.088.093-.088.093-.089.092-.089.092-.089.092-.089.092-.089.092-.09.091-.09.091-.09.091-.09.091-.09.09-.091.09-.091.09-.091.09-.091.09-.092.089-.092.089-.092.089-.092.089-.092.089-.093.088-.093.088-.093.088-.093.088-.093.087-.094.087-.094.087-.094.087-.094.087-.094.086-.068.066-.095.086-.095.086-.095.085-.095.085-.096.085-.096.085-.096.084-.096.084-.096.084-.097.084-.097.084-.097.083-.097.083-.097.083-.098.083-.098.082-.098.082-.098.082-.098.082-.099.082-.099.081-.099.081-.099.081-.099.081-.1.08-.1.08-.1.08-.339-.425-.338-.424-.339-.425-.339-.425-.339-.425-.339-.425-.339-.425-.339-.425-.339-.425-.339-.425-.339-.425-.339-.425-.339-.425-.339-.425-.339-.425-.339-.425-.339-.425-.339-.425-.339-.425-.339-.425-.339-.425-.339-.425-.339-.425-.339-.425-.339-.425-.33-.414-.339-.425-.339-.425-.339-.425-.339-.425-.339-.425-.339-.425-.339-.425-.339-.425-.339-.425-.339-.425-.339-.425-.339-.425-.339-.425-.339-.425-.339-.425-.339-.425-.339-.425-.339-.425-.339-.425-.339-.425-.339-.425-.339-.425-.339-.425-.339-.425-.339-.425-.339-.425-.339-.425-.339-.425-.339-.425-.339-.425-.339-.425-.339-.425-.339-.425-.339-.425-.339-.425-.339-.425-.339-.425-.339-.425-.339-.425-.339-.425-.339-.425-.339-.425-.339-.425-.339-.425-.339-.425-.339-.425-.339-.425-.339-.425-.339-.425-.339-.425-.339-.425-.339-.425-.339-.425-.339-.425-.339-.425-.339-.425-.339-.425-.339-.425-.339-.425-.339-.425-.339-.425-.339-.425-.339-.425-.339-.425-.339-.425-.339-.425-.339-.425-.339-.425-.339-.425-.339-.425-.339-.425-.339-.425-.339-.425-.307-.391z" opacity=".6"/><path fill="#2c2c2c" d="m77.551 64.198-13.576-.001a.414.414 0 0 1-.128-.806l12.912-4.194a.413.413 0 0 1 .521.265c.455 1.398.685 2.853.684 4.323a.413.413 0 0 1-.413.413zm-10.965-.828h10.545a13.114 13.114 0 0 0-.516-3.258L66.586 63.37z"/><path fill="#2c2c2c" d="M63.975 64.197a.414.414 0 0 1-.387-.558L77.899 25.51a.412.412 0 0 1 .532-.242 41 41 0 0 1 11.196 6.351.414.414 0 0 1 .066.581L64.298 64.041a.415.415 0 0 1-.323.156zm14.552-38.008L65.28 61.484l23.507-29.475a40.163 40.163 0 0 0-10.26-5.82z"/><path fill="#2c2c2c" d="M63.975 64.197a.415.415 0 0 1-.317-.148L28.857 22.364a.412.412 0 0 1 .052-.582A54.784 54.784 0 0 1 51.801 10.44a.414.414 0 0 1 .495.312l12.083 52.941a.415.415 0 0 1-.22.463.444.444 0 0 1-.184.041zM29.757 22.152l33.431 40.044-11.607-50.857a53.967 53.967 0 0 0-21.824 10.813z"/><path fill="#2c2c2c" d="M17.224 72.681a.413.413 0 0 1-.406-.339c-1.813-9.884-.401-20.309 3.977-29.355a.414.414 0 0 1 .552-.193l42.808 20.615a.413.413 0 0 1-.106.78l-46.75 8.485a.318.318 0 0 1-.075.007zm4.136-28.96c-4.103 8.678-5.448 18.61-3.801 28.067l45.09-8.183L21.36 43.721z"/><path fill="#2c2c2c" d="M41.657 79.659a.42.42 0 0 1-.341-.178 27.673 27.673 0 0 1-2.177-3.738.413.413 0 0 1 .193-.552l24.462-11.78a.413.413 0 0 1 .415.713L41.893 79.586a.414.414 0 0 1-.236.073zm-1.59-3.904a27.058 27.058 0 0 0 1.697 2.913L59.42 66.436l-19.353 9.319z"/><path fill="#2c2c2c" d="M63.99 98.132c-2.58 0-5.165-.287-7.66-.857a.415.415 0 0 1-.311-.496l7.552-33.088c.044-.192.223-.354.415-.321a.412.412 0 0 1 .396.344l5.685 33.46a.414.414 0 0 1-.339.477 34.201 34.201 0 0 1-5.738.481zm-7.072-1.574c4 .86 8.22.98 12.264.344l-5.267-30.999-6.997 30.655z"/><path fill="#2c2c2c" d="M97.832 106.652a.413.413 0 0 1-.324-.156L63.651 64.041a.413.413 0 0 1 .577-.584l42.833 33.379a.414.414 0 0 1 .072.581 54.697 54.697 0 0 1-9.045 9.146.409.409 0 0 1-.256.089zM66.477 66.258l31.42 39.399a53.985 53.985 0 0 0 8.329-8.423L66.477 66.258z"/>
    </symbol>

    <!--  sklearn icon -->
    <symbol id="sklearn" viewBox="0 0 128 128">
    <path fill="#f89939" d="M98.18 88.13c15.63-15.62 18.23-38.36 5.8-50.78-12.43-12.42-35.17-9.82-50.8 5.8-15.63 15.62-11.11 45.48-5.8 50.78 4.29 4.29 35.17 9.82 50.8-5.8Z"/><path fill="#3499cd" d="M34.04 65.56c-9.07-9.06-22.27-10.57-29.48-3.37-7.21 7.21-5.7 20.4 3.37 29.46 9.07 9.07 26.4 6.44 29.48 3.37 2.49-2.49 5.71-20.4-3.37-29.46Z"/><path fill="#010101" d="M123.82 85.68c-.58 0-.87-.35-.87-1.06 0-.53.35-1.69 1.04-3.46 1.01-2.59 1.52-4.45 1.52-5.58 0-.68-.2-1.25-.6-1.7-.4-.45-.9-.68-1.5-.68-.88 0-1.89.41-3.03 1.24-1.14.83-2.67 2.32-4.6 4.48.28-1.4.88-3.32 1.78-5.76l-4.31.83c-.98 2.12-1.69 4.03-2.13 5.73-.22.83-.38 1.69-.49 2.56-1.35 1.31-2.23 2.1-2.61 2.39-.39.29-.8.43-1.22.43-.39 0-.7-.15-.93-.44-.23-.29-.34-.69-.34-1.18 0-.53.1-1.14.3-1.83s.64-1.99 1.33-3.9l1.64-4.52-1.61.07c-1.46 2.78-3.17 4.28-5.13 4.49.53-1.38.8-2.44.8-3.18 0-.94-.46-1.41-1.38-1.41-1.09 0-1.94.51-2.55 1.54-.62 1.03-.93 2-.93 2.91s.51 1.55 1.52 2c-.66.97-1.4 1.88-2.2 2.74-.95.94-1.69 1.66-2.23 2.13-.55.49-1.06.73-1.52.73-.72 0-1.08-.51-1.08-1.52s.4-2.75 1.2-5.35l1.56-5.18h-.99l-3.61 2c-.59-1.35-1.62-2.03-3.09-2.03-1.17 0-2.51.5-4.03 1.49-1.52.99-2.77 2.28-3.74 3.89-.75 1.24-1.21 2.54-1.38 3.88-1.36 1.36-2.38 2.24-3.06 2.65-.71.42-1.45.63-2.23.63-1.99 0-3.22-1.15-3.69-3.45 5.19-1.52 7.78-3.5 7.78-5.94 0-.92-.33-1.66-.99-2.23-.66-.57-1.54-.85-2.63-.85-2.11 0-4.03 1.01-5.76 3.03-1.57 1.83-2.42 3.86-2.57 6.09-1.43 1.41-2.51 2.34-3.21 2.79-.72.46-1.4.69-2.03.69s-1.13-.3-1.5-.9c-.38-.6-.57-1.41-.57-2.44 0-.46.05-1.3.14-2.53 2.36-2.56 4.09-4.96 5.2-7.21 1.11-2.25 1.66-4.58 1.66-6.98 0-.85-.11-1.52-.33-2.02-.22-.5-.5-.75-.84-.75-.07 0-.18.02-.32.07l-4.49 1.66c-1.53 2.92-2.84 6.11-3.91 9.58-1.07 3.46-1.61 6.43-1.61 8.9 0 1.65.38 2.96 1.16 3.94.77.98 1.79 1.47 3.05 1.47 1.1 0 2.25-.35 3.46-1.05 1.21-.7 2.61-1.79 4.22-3.26s0-.02 0-.02c.19 1.11.65 2.04 1.37 2.8.99 1.02 2.28 1.54 3.88 1.54 1.44 0 2.75-.35 3.94-1.05 1.15-.67 2.44-1.72 3.88-3.11.12 1.04.46 1.94 1.03 2.71.73.97 1.61 1.46 2.64 1.46s2.09-.4 3.09-1.2c1-.8 2.08-2.05 3.26-3.73-.11 3.29.77 4.93 2.63 4.93.74 0 1.52-.27 2.33-.81s2.16-1.71 4.05-3.5c1.64-1.62 2.84-3.14 3.61-4.56 1.04-.18 1.99-.49 2.86-.94-1.78 2.79-2.67 5.02-2.67 6.68 0 .9.25 1.65.74 2.25.49.6 1.1.91 1.82.91 1.57 0 3.8-1.41 6.68-4.2 0 .22-.02.43-.02.65 0 .78.07 1.96.19 3.55l3.91-.92c0-1.06.02-1.9.05-2.53.06-.84.18-1.76.35-2.76.11-.59.38-1.15.81-1.68l.99-1.15c.36-.42.71-.8 1.02-1.13.37-.39.7-.72.99-.99.33-.29.62-.53.87-.69.27-.16.49-.25.65-.25.29 0 .44.19.44.57s-.28 1.26-.83 2.65c-1.04 2.59-1.56 4.52-1.56 5.78 0 .93.24 1.67.73 2.23.48.55 1.12.83 1.91.83 1.94 0 4.28-1.44 7-4.31V82.3c-1.93 2.27-3.32 3.41-4.18 3.41Zm-65.26-8.29c.8-3.91 1.62-6.94 2.45-9.11.83-2.17 1.47-3.26 1.9-3.26.2 0 .37.13.5.4.13.26.19.62.19 1.05 0 1.49-.46 3.26-1.4 5.33-.93 2.06-2.15 3.93-3.64 5.59Zm11.79-.98c.71-1.19 1.45-1.78 2.23-1.78.82 0 1.24.57 1.24 1.7 0 2.29-1.51 3.85-4.53 4.7 0-1.9.35-3.44 1.06-4.62Zm17.48 5.85c-1.04 2.01-2.16 3.01-3.33 3.01-.48 0-.88-.2-1.19-.59-.31-.39-.47-.91-.47-1.55 0-1.68.53-3.53 1.58-5.53 1.05-2 2.17-3 3.35-3 .49 0 .89.18 1.18.56.29.37.44.89.44 1.55 0 1.7-.52 3.55-1.56 5.56Z"/><path fill="#fff" d="M75.46 64.88c.15.21.22.48.22.8s-.09.61-.27.88-.44.49-.79.64c-.34.15-.73.23-1.16.23-.72 0-1.26-.15-1.64-.45s-.62-.74-.72-1.33l.93-.15c.05.37.2.66.43.85.24.2.57.3 1 .3s.75-.09.96-.26c.21-.17.31-.38.31-.62 0-.21-.09-.38-.28-.5-.13-.08-.45-.19-.96-.32-.69-.17-1.16-.32-1.43-.45s-.47-.3-.6-.53-.21-.47-.21-.74c0-.25.06-.47.17-.68.11-.21.27-.38.46-.52.15-.11.34-.2.59-.27.25-.07.52-.11.81-.11.43 0 .81.06 1.14.19.33.12.57.29.73.51.16.21.26.5.32.86l-.92.12c-.04-.28-.16-.51-.36-.67-.2-.16-.48-.24-.85-.24-.43 0-.74.07-.92.21-.18.14-.28.31-.28.5 0 .12.04.23.11.33.08.1.2.18.36.25.09.03.37.11.83.24.66.18 1.12.32 1.39.43.26.11.47.28.62.49Zm4.47 1.44c-.25.23-.55.34-.92.34-.46 0-.83-.17-1.11-.5s-.43-.88-.43-1.62.15-1.27.44-1.6.68-.51 1.15-.51c.31 0 .58.09.8.28.22.19.37.47.46.84l.91-.14c-.11-.56-.35-.99-.73-1.29-.38-.3-.87-.45-1.47-.45-.48 0-.91.11-1.32.34-.4.22-.71.56-.9 1.01-.2.45-.3.97-.3 1.57 0 .92.23 1.63.69 2.12.46.49 1.07.74 1.82.74.6 0 1.11-.18 1.53-.54.41-.36.67-.86.77-1.49l-.92-.12c-.07.47-.22.81-.47 1.04Zm2.19.98h.94v-5.52h-.94v5.52Zm0-6.55h.94v-1.08h-.94v1.08Zm6.73 1.02h-1.21l-2.22 2.25v-4.35h-.94v7.62h.94V65.1l.66-.63 1.83 2.82h1.16l-2.33-3.47 2.11-2.05Zm.96-1.02h.94v-1.08h-.94v1.08Zm0 6.55h.94v-5.52h-.94v5.52Zm4.41-.84c-.17.02-.31.04-.41.04-.14 0-.25-.02-.32-.07s-.13-.11-.16-.18c-.03-.08-.05-.25-.05-.51v-3.23h.94v-.73h-.94v-1.93l-.93.56v1.37h-.69v.73h.69v3.18c0 .56.04.93.11 1.1.08.18.21.32.39.42.19.11.45.16.79.16.21 0 .44-.03.71-.08l-.14-.83Z"/>
    </symbol>

    <!--  anaconda icon -->
    <symbol id="anaconda" viewBox="0 0 128 128">
    <path d="M59.3 127.602c-11.206-1.075-21.253-4.403-29.288-9.7l-1.688-1.113-.406-3.133c-.45-3.488-.922-9.035-.918-10.86v-1.19l5.242-.043c2.883-.024 6.117-.133 7.188-.25 1.699-.18 2.035-.149 2.652.238 5.715 3.586 14.445 5.965 21.871 5.957 11.899-.008 22.414-4.395 30.902-12.89 3.754-3.759 5.817-6.583 8.07-11.06 6.188-12.273 6.321-26.316.372-38.601-5.89-12.16-17.375-21.094-30.5-23.719-3.383-.68-8.043-1.039-10.828-.84l-2.27.165.574-.813c.32-.445 2.426-2.7 4.684-5.008l4.106-4.195-1.688-1.57C64.988 6.75 61.691 4 59.219 2.168L57.102.602l.796-.188C59.473.043 68.664.156 71.953.586c27.024 3.531 48.594 23.16 54.45 49.555 1.917 8.629 1.956 18.187.117 27.117-2.325 11.27-8.235 22.383-16.442 30.91A64.013 64.013 0 0169.906 127.5c-2.547.238-8.594.293-10.605.102zm-39.987-18.344c-3.622-3.617-8.516-9.492-8.184-9.824.062-.063 1.43.156 3.035.48 2.438.496 7.922 1.328 8.75 1.328.125 0 .23 1.035.234 2.352.004 2.156.23 5.246.618 8.437.109.899.07 1.266-.13 1.266-.156 0-2.105-1.817-4.323-4.04zM27 96.336c0-1.941.504-7.723.691-7.926.09-.094.852.738 1.696 1.852.84 1.117 2.746 3.23 4.234 4.695l2.703 2.672H27zm-4.945.887c-4.032-.496-12.22-2.07-12.871-2.473-.2-.125.039-1.094.84-3.41 1.058-3.047 3.554-9.035 3.945-9.453.097-.102 1.414.457 2.926 1.246 1.515.789 3.71 1.844 4.886 2.351l2.133.914-.148 1.102c-.34 2.57-.614 6.047-.618 7.898-.003 1.094-.09 1.973-.187 1.954-.102-.02-.508-.079-.906-.13zM4.527 86.852a68.035 68.035 0 01-3.082-10.657C.7 72.5.723 72.473 3.02 74.285c1.062.84 3.097 2.32 4.52 3.285 1.42.97 2.585 1.801 2.585 1.844 0 .047-.445 1.047-.988 2.219a109.642 109.642 0 00-2.075 4.906c-.597 1.523-1.164 2.86-1.265 2.965-.098.105-.668-1.09-1.27-2.652zm17.34-6.235c-1.851-.851-5.21-2.566-5.668-2.89-.094-.067 2.383-4.149 3.645-6.004l.988-1.457.172.726c1.105 4.625 1.77 6.977 2.457 8.688.45 1.12.805 2.035.793 2.035-.016-.004-1.09-.496-2.387-1.098zM9.25 73.38c-2.602-1.817-6.95-5.238-7.223-5.68-.257-.418 8.602-9.004 9.293-9.004.114 0 1.075 1.14 2.133 2.532 1.063 1.394 2.48 3.164 3.156 3.933.676.77 1.23 1.45 1.23 1.512 0 .062-.85 1.387-1.894 2.941-1.039 1.551-2.246 3.45-2.675 4.211-.43.762-.918 1.387-1.09 1.387-.168 0-1.489-.824-2.93-1.832zM.242 61.824c.035-3.027 1.055-9.922 2.055-13.883.992-3.921.797-3.894 2.598-.332.867 1.723 2.058 3.934 2.64 4.918l1.059 1.782-1.828 1.566c-1.004.86-2.883 2.605-4.176 3.875C1.297 61.023.242 61.957.242 61.824zm19.38-.793c-1.903-2.27-4.177-5.422-4.056-5.617.164-.266 2.973-2.172 5.258-3.57 1.531-.938 1.649-.973 1.496-.457-.562 1.925-1.36 5.972-1.582 8.02-.144 1.316-.285 2.421-.316 2.452-.031.032-.39-.343-.8-.828zm-8.364-12.07c-2.5-4.356-5.387-10.586-5.051-10.895.54-.504 9.703-3.07 12.41-3.476l1.055-.16.531 3.215c.29 1.77.777 4.253 1.086 5.523l.559 2.312-1.98 1.125c-1.09.622-3.177 1.926-4.634 2.899l-2.648 1.77zm14.805-9.977a161.737 161.737 0 01-.708-4.062l-.203-1.36 1.23-.144c.68-.078 2.532-.215 4.118-.3l2.887-.153-.989 1.055c-1.632 1.742-3.488 4.082-4.695 5.93l-1.137 1.737zm-16.16-8.816c1.648-2.793 6.855-9.422 8.62-10.98l.52-.461v10.132l-2.11.41c-1.835.356-5.757 1.313-7.152 1.743-.426.133-.418.062.121-.844zm14.73-8.176c.043-3.324.14-6.105.219-6.183.27-.274 11.554 1.972 11.98 2.382.04.04-.3 1.301-.754 2.809-.457 1.512-1.02 3.57-1.254 4.574l-.426 1.836-3.398.15c-1.871.082-4.086.222-4.922.312l-1.523.164zm16.105 4.942c0-.11.957-3.567 1.465-5.286l.477-1.609 2.945 1.211c3.902 1.605 3.813 1.547 2.941 1.91-2.035.856-5.39 2.48-6.421 3.117-1.094.672-1.407.817-1.407.657zm10.848-9.688c-.863-.433-2.723-1.254-4.133-1.824l-2.566-1.035.25-.715c.316-.906 3.847-7.985 4.508-9.04l.496-.792 1.507 1.015c1.973 1.336 5.598 4.047 6.793 5.086l.95.825-2.52 2.875c-1.383 1.578-2.785 3.214-3.117 3.632l-.602.766zm-15.79-5.578a145.584 145.584 0 00-4.698-1.117l-1.57-.324 2.124-1.262a82.044 82.044 0 013.86-2.133c1.855-.937 7.449-3.242 7.57-3.121.04.039-.39.984-.96 2.098-.567 1.113-1.458 3-1.977 4.195-.52 1.191-1.004 2.234-1.079 2.312-.074.079-1.546-.214-3.27-.648zm0 0" fill="#3eb049"/>
    </symbol>

    <!--  git icon -->
    <symbol id="git" viewBox="0 0 128 128">
    <path fill="#F34F29" d="M124.737 58.378L69.621 3.264c-3.172-3.174-8.32-3.174-11.497 0L46.68 14.71l14.518 14.518c3.375-1.139 7.243-.375 9.932 2.314 2.703 2.706 3.461 6.607 2.294 9.993l13.992 13.993c3.385-1.167 7.292-.413 9.994 2.295 3.78 3.777 3.78 9.9 0 13.679a9.673 9.673 0 01-13.683 0 9.677 9.677 0 01-2.105-10.521L68.574 47.933l-.002 34.341a9.708 9.708 0 012.559 1.828c3.778 3.777 3.778 9.898 0 13.683-3.779 3.777-9.904 3.777-13.679 0-3.778-3.784-3.778-9.905 0-13.683a9.65 9.65 0 013.167-2.11V47.333a9.581 9.581 0 01-3.167-2.111c-2.862-2.86-3.551-7.06-2.083-10.576L41.056 20.333 3.264 58.123a8.133 8.133 0 000 11.5l55.117 55.114c3.174 3.174 8.32 3.174 11.499 0l54.858-54.858a8.135 8.135 0 00-.001-11.501z"/>
    </symbol>

    <!--  vscode icon -->
    <symbol id="vscode" viewBox="0 0 128 128">
    <mask id="a" width="128" height="128" x="0" y="0" maskUnits="userSpaceOnUse" style="mask-type:alpha"><path fill="#fff" fill-rule="evenodd" d="M90.767 127.126a7.968 7.968 0 0 0 6.35-.244l26.353-12.681a8 8 0 0 0 4.53-7.209V21.009a8 8 0 0 0-4.53-7.21L97.117 1.12a7.97 7.97 0 0 0-9.093 1.548l-50.45 46.026L15.6 32.013a5.328 5.328 0 0 0-6.807.302l-7.048 6.411a5.335 5.335 0 0 0-.006 7.888L20.796 64 1.74 81.387a5.336 5.336 0 0 0 .006 7.887l7.048 6.411a5.327 5.327 0 0 0 6.807.303l21.974-16.68 50.45 46.025a7.96 7.96 0 0 0 2.743 1.793Zm5.252-92.183L57.74 64l38.28 29.058V34.943Z" clip-rule="evenodd"/></mask><g mask="url(#a)"><path fill="#0065A9" d="M123.471 13.82 97.097 1.12A7.973 7.973 0 0 0 88 2.668L1.662 81.387a5.333 5.333 0 0 0 .006 7.887l7.052 6.411a5.333 5.333 0 0 0 6.811.303l103.971-78.875c3.488-2.646 8.498-.158 8.498 4.22v-.306a8.001 8.001 0 0 0-4.529-7.208Z"/><g filter="url(#b)"><path fill="#007ACC" d="m123.471 114.181-26.374 12.698A7.973 7.973 0 0 1 88 125.333L1.662 46.613a5.333 5.333 0 0 1 .006-7.887l7.052-6.411a5.333 5.333 0 0 1 6.811-.303l103.971 78.874c3.488 2.647 8.498.159 8.498-4.219v.306a8.001 8.001 0 0 1-4.529 7.208Z"/></g><g filter="url(#c)"><path fill="#1F9CF0" d="M97.098 126.882A7.977 7.977 0 0 1 88 125.333c2.952 2.952 8 .861 8-3.314V5.98c0-4.175-5.048-6.266-8-3.313a7.977 7.977 0 0 1 9.098-1.549L123.467 13.8A8 8 0 0 1 128 21.01v85.982a8 8 0 0 1-4.533 7.21l-26.369 12.681Z"/></g><path fill="url(#d)" fill-rule="evenodd" d="M90.69 127.126a7.968 7.968 0 0 0 6.349-.244l26.353-12.681a8 8 0 0 0 4.53-7.21V21.009a8 8 0 0 0-4.53-7.21L97.039 1.12a7.97 7.97 0 0 0-9.093 1.548l-50.45 46.026-21.974-16.68a5.328 5.328 0 0 0-6.807.302l-7.048 6.411a5.336 5.336 0 0 0-.006 7.888L20.718 64 1.662 81.386a5.335 5.335 0 0 0 .006 7.888l7.048 6.411a5.328 5.328 0 0 0 6.807.303l21.975-16.681 50.45 46.026a7.959 7.959 0 0 0 2.742 1.793Zm5.252-92.184L57.662 64l38.28 29.057V34.943Z" clip-rule="evenodd" opacity="0.25" style="mix-blend-mode:overlay"/></g><defs><filter id="b" width="144.744" height="113.408" x="-8.41115" y="22.5944" color-interpolation-filters="sRGB" filterUnits="userSpaceOnUse"><feFlood flood-opacity="0" result="BackgroundImageFix"/><feColorMatrix in="SourceAlpha" result="hardAlpha" values="0 0 0 0 0 0 0 0 0 0 0 0 0 0 0 0 0 0 127 0"/><feOffset/><feGaussianBlur stdDeviation="4.16667"/><feColorMatrix values="0 0 0 0 0 0 0 0 0 0 0 0 0 0 0 0 0 0 0.25 0"/><feBlend in2="BackgroundImageFix" mode="overlay" result="effect1_dropShadow_1_36"/><feBlend in="SourceGraphic" in2="effect1_dropShadow_1_36" result="shape"/></filter><filter id="c" width="56.6667" height="144.007" x="79.6667" y="-8.0035" color-interpolation-filters="sRGB" filterUnits="userSpaceOnUse"><feFlood flood-opacity="0" result="BackgroundImageFix"/><feColorMatrix in="SourceAlpha" result="hardAlpha" values="0 0 0 0 0 0 0 0 0 0 0 0 0 0 0 0 0 0 127 0"/><feOffset/><feGaussianBlur stdDeviation="4.16667"/><feColorMatrix values="0 0 0 0 0 0 0 0 0 0 0 0 0 0 0 0 0 0 0.25 0"/><feBlend in2="BackgroundImageFix" mode="overlay" result="effect1_dropShadow_1_36"/><feBlend in="SourceGraphic" in2="effect1_dropShadow_1_36" result="shape"/></filter><linearGradient id="d" x1="63.9222" x2="63.9222" y1="0.329902" y2="127.67" gradientUnits="userSpaceOnUse"><stop stop-color="#fff"/><stop offset="1" stop-color="#fff" stop-opacity="0"/></linearGradient></defs>
    </symbol>


  </defs>
</svg>

